<?xml version="1.0" encoding="UTF-8" standalone="no"?>
<!DOCTYPE svg PUBLIC "-//W3C//DTD SVG 1.1//EN" "http://www.w3.org/Graphics/SVG/1.1/DTD/svg11.dtd">
<svg width="100%" height="100%" viewBox="0 0 2223 2223" version="1.1" xmlns="http://www.w3.org/2000/svg" xmlns:xlink="http://www.w3.org/1999/xlink" xml:space="preserve" xmlns:serif="http://www.serif.com/" style="fill-rule:evenodd;clip-rule:evenodd;stroke-linejoin:round;stroke-miterlimit:2;">
    <g transform="matrix(5.55556,0,0,5.55556,0,0)">
        <g id="svgg">
            <path id="path0" d="M197.461,45.585C157.536,49.185 134.618,69.524 129.102,106.249L128.51,110.19L125.957,113.182C108.567,133.563 123.412,167.724 149.219,166.712C179.204,165.536 184.084,117.648 155.566,104.415C152.263,102.883 152.256,102.86 153.49,97.574C157.555,80.149 165.329,69.788 179.69,62.652C204.672,50.239 238.016,61.463 250.219,86.393L251.302,88.606L255.046,89.466C260.38,90.691 265.201,92.349 269.885,94.568C274.696,96.848 274.485,96.947 273.94,92.663C270.187,63.211 235.92,42.116 197.461,45.585M181.059,87.111C179.558,87.299 176.819,87.819 174.973,88.267C162.126,91.379 155.949,96.583 161.994,99.202C188.624,110.737 192.94,152.22 169.186,168.326C154.601,178.215 136.851,176.439 125.137,163.918L122.03,160.598L118.735,162.359C90.072,177.674 67.504,203.904 59.63,231.055C47.953,271.32 53.631,305.043 76.338,330.287C95.143,351.192 130.778,363.021 169.727,361.285C223.224,358.901 263.306,337.048 281.059,300.586C285.969,290.503 287.783,283.974 291.207,264.063C295.046,241.739 301.296,234.61 316.992,234.654C345.254,234.732 360.495,265.097 344.177,288.815C342.469,291.296 343.286,291.382 345.896,288.996C355.648,280.084 358.376,261.854 351.995,248.237C341.255,225.318 309.304,218.541 292.161,235.547C285.727,241.928 284.074,246.116 278.898,269.141C272.615,297.085 261.596,312.971 238.191,327.826C206.49,347.947 151.476,351.801 119.696,336.128C115.072,333.848 111.581,331.473 113.867,332.163C121.08,334.342 134.642,336.517 147.07,337.49C175.096,339.683 174.276,339.641 179.376,339.139C182.018,338.878 186.128,338.667 188.509,338.669C190.89,338.67 192.949,338.562 193.083,338.427C193.594,337.916 192.075,335.273 190.142,333.31C187.436,330.563 187.518,330.561 195.326,333.215C209.878,338.161 213.22,333.857 200.319,326.786C190.547,321.431 181.114,320.857 159.28,324.291C152.527,325.352 152.51,325.322 157.284,320.769C167.372,311.151 173.091,301.177 175.242,289.453C182.152,251.785 149.596,225.094 113.715,239.009C109.053,240.816 109.143,240.287 114.028,237.158C150.81,213.604 192.189,244.606 182.266,288.284C180.771,294.865 176.217,305.993 172.637,311.81C171.125,314.268 171.181,314.303 174.594,313.038C182.75,310.015 194.355,300.028 201.434,289.941C203.206,287.417 204.988,284.923 205.394,284.398L206.134,283.445L208.307,284.509C213.485,287.042 221.414,299.373 221.471,304.98C221.491,306.867 221.948,306.529 223.134,303.75C224.456,300.655 225.099,296.662 224.932,292.579C224.786,288.994 224.956,288.869 227.019,291.038C229.008,293.129 230.685,296.557 231.022,299.219C231.605,303.828 232.002,304.138 233.402,301.074C238.415,290.095 234.657,281.369 220.28,270.609L215.755,267.223L214.164,263.787C211.028,257.012 208.782,247.442 207.881,237.012C207.463,232.176 207.81,232.688 210.134,240.332C214.713,255.395 215.943,256.67 225.352,256.11C227.629,255.974 231.726,255.749 234.457,255.608L239.422,255.352L240.902,256.475C246.414,260.654 248.778,264.843 250.199,272.949C250.979,277.402 251.047,277.481 252.566,275.684C254.38,273.537 255.13,271.296 255.514,266.874C255.712,264.604 255.946,262.674 256.035,262.584C256.663,261.956 258.785,265.817 260.325,270.387C260.853,271.957 261.383,273.198 261.502,273.145C261.621,273.091 261.867,273.047 262.047,273.047C263.096,273.047 265.625,266.281 265.625,263.477C265.625,255.601 257.373,245.104 243.888,235.826C240.544,233.526 239.829,232.864 239.995,232.227C240.107,231.797 241.622,227.314 243.363,222.266C251.825,197.715 255.98,193.803 281.332,186.516C292.603,183.276 297.992,181.294 302.461,178.745C304.137,177.789 306.071,176.884 306.758,176.735C309.053,176.235 315.665,173.807 318.494,172.425C323.688,169.887 334.766,161.271 334.766,159.769C334.766,158.667 333.166,154.576 331.405,151.172C330.571,149.561 329.829,148.11 329.756,147.949C329.682,147.788 330.218,147.656 330.946,147.656C333.277,147.656 337.261,150.801 338.87,153.912C339.66,155.439 339.646,155.447 340.986,152.793C343.906,147.008 344.422,143.35 342.66,140.93C338.083,134.649 305.051,115.047 283.008,105.532C251.844,92.081 233.437,89.818 212.305,96.843L209.961,97.622L208.008,95.731C200.654,88.614 191.758,85.768 181.059,87.111M255.665,122.219C258.852,123.452 261.61,125.028 265.932,128.084C268.817,130.125 268.829,130.172 266.684,131.21C261.662,133.641 252.932,134.357 247.308,132.798C242.127,131.362 234.153,125.934 235.324,124.64C238.758,120.845 248.974,119.629 255.665,122.219" style="fill:rgb(83,63,63);"/>
            <path id="path1" d="M0,200L0,400L400,400L400,0L0,0L0,200M218.134,45.926C246.41,50.154 266.509,65.207 272.86,86.914C273.786,90.081 274.635,96.484 274.128,96.484C274.017,96.484 272.541,95.85 270.85,95.075C265.707,92.718 261.355,91.178 256.641,90.047C254.17,89.454 251.935,88.911 251.675,88.839C251.414,88.767 250.646,87.601 249.967,86.248C236.336,59.083 199.449,49.277 174.033,66.063C162.54,73.654 153.903,88.099 153.045,101.165L152.93,102.916L155.804,104.386C170.227,111.76 177.829,128.532 173.898,144.307C168.66,165.327 149.573,173.185 132.049,161.536C116.799,151.397 113.652,126.299 125.963,112.99C128.232,110.537 128.424,110.186 128.688,108.008C132.172,79.259 148.069,58.926 174.161,49.843C185.991,45.726 205.294,44.006 218.134,45.926M192.863,87.336C198.682,88.538 202.87,90.768 207.485,95.124L209.961,97.461L212.109,96.747C226.942,91.818 239.812,91.445 255.277,95.494C277.257,101.249 307.239,115.665 332.413,132.582C344.78,140.892 345.554,142.337 342.109,150.687C340.126,155.495 339.978,155.561 337.83,152.591C335.88,149.893 333.455,148.165 331.08,147.78L329.679,147.553L331.407,150.827C332.357,152.628 333.62,155.489 334.215,157.184L335.297,160.267L333.566,161.781C325.227,169.081 318.081,173.354 310.156,175.78C307.9,176.471 305.264,177.467 304.297,177.995C297.881,181.497 292.827,183.418 281.836,186.53C254.284,194.331 251.742,197.12 240.009,232.422C239.881,232.808 240.453,233.405 241.685,234.173C260.334,245.79 269.077,260.053 263.956,270.508C262.126,274.243 261.372,274.26 260.234,270.593C259.26,267.456 257.028,262.825 256.387,262.611C256.132,262.526 255.884,263.914 255.727,266.315C255.418,271.033 254.679,273.299 252.742,275.474C250.887,277.555 250.992,277.685 249.84,271.893C248.393,264.627 245.556,259.863 240.651,256.464L239.076,255.372L231.94,255.909C215.234,257.165 214.974,256.973 209.72,239.453C207.877,233.308 207.481,233.198 208.183,239.026C210.333,256.863 213.664,265.803 219.75,270.07C232.293,278.864 237.467,288.02 235.007,297.07C234.295,299.689 232.558,303.516 232.081,303.516C231.87,303.516 231.501,302.505 231.263,301.27C230.105,295.274 229.256,293.424 226.389,290.646L225,289.3L224.99,293.771C224.98,298.791 224.662,300.562 223.131,304.147C222.073,306.625 221.484,307.267 221.484,305.941C221.484,297.124 207.698,279.733 204.931,285.059C199.464,295.579 183.962,309.652 173.461,313.63C170.724,314.666 170.736,314.744 173.058,310.799C178.08,302.266 182.137,290.902 183.184,282.432C188.326,240.863 147.864,214.961 113.392,237.754C109.882,240.075 108.811,241.128 111.202,239.908C135.481,227.522 167.033,239.923 174.147,264.648C179.882,284.584 174.474,303.425 158.251,320.02C155.574,322.759 153.573,325 153.805,325C154.038,325 155.556,324.746 157.178,324.436C169.736,322.033 184.46,321.411 190.625,323.023C201.981,325.992 211.374,332.941 207.027,335.158C204.766,336.312 203.715,336.162 196.062,333.594C187.851,330.838 187.58,330.801 189.727,332.716C191.592,334.38 193.359,336.896 193.359,337.887C193.359,339.269 170.519,339.685 157.952,338.532C154.053,338.174 147.55,337.622 143.498,337.304C135.384,336.668 127.195,335.426 119.168,333.615C113.49,332.334 112.951,332.319 114.921,333.492C134.409,345.105 166.125,348.903 195.508,343.144C218.669,338.604 233.543,332.239 248.108,320.635C265.403,306.857 273.523,293.001 279.088,267.773C283.673,246.988 285.896,241.408 291.992,235.384C305.166,222.367 329.031,222.961 343.846,236.675C358.432,250.176 359.634,275.501 346.314,288.656C343.507,291.428 341.858,291.657 343.858,288.998C350.366,280.343 352.274,265.812 348.325,254.984C340.185,232.661 305.291,227.133 295.911,246.68C293.921,250.826 293.101,253.962 291.377,264.027C287.886,284.415 285.246,293.436 279.821,303.511C260.085,340.164 216.863,361.516 162.5,361.466C79.938,361.392 37.16,307.464 59.382,231.47C67.37,204.153 88.962,178.636 117.383,162.927C122.548,160.073 122.061,160.083 124.219,162.783C134.115,175.166 152.494,178.092 166.946,169.585C192.22,154.708 189.998,113.044 163.234,99.997C161.864,99.328 160.479,98.643 160.156,98.473C159.268,98.004 159.191,95.774 160.031,94.835C164.871,89.421 182.958,85.29 192.863,87.336M243.253,121.3C237.78,122.33 234.133,124.782 235.948,126.212C245.933,134.081 255.912,135.699 266.504,131.166C268.907,130.138 269.016,130.328 264.156,127.077C255.608,121.361 250.471,119.941 243.253,121.3" style="fill:rgb(251,251,251);"/>
            <path id="path2" d="M205.762,45.198C206.245,45.291 207.036,45.291 207.52,45.198C208.003,45.104 207.607,45.028 206.641,45.028C205.674,45.028 205.278,45.104 205.762,45.198M86.698,186.23L85.352,187.695L86.816,186.349C88.18,185.096 88.461,184.766 88.163,184.766C88.097,184.766 87.438,185.425 86.698,186.23M350.489,267.773C350.493,268.633 350.573,268.938 350.667,268.452C350.76,267.967 350.757,267.263 350.659,266.89C350.561,266.517 350.485,266.914 350.489,267.773" style="fill:rgb(153,154,154);"/>
            <path id="path3" d="M199.503,57.704C200.196,57.79 201.427,57.792 202.237,57.707C203.048,57.622 202.48,57.552 200.977,57.55C199.473,57.548 198.81,57.618 199.503,57.704M138.77,229.186C139.36,229.276 140.327,229.276 140.918,229.186C141.509,229.097 141.025,229.023 139.844,229.023C138.662,229.023 138.179,229.097 138.77,229.186M222.563,256.526C223.049,256.62 223.752,256.616 224.126,256.518C224.499,256.421 224.102,256.344 223.242,256.349C222.383,256.353 222.077,256.433 222.563,256.526" style="fill:rgb(189,188,189);"/>
            <path id="path4" d="M165.796,72.363L164.648,73.633L165.918,72.486C167.101,71.416 167.367,71.094 167.065,71.094C166.998,71.094 166.427,71.665 165.796,72.363M240.82,73.438C241.659,74.297 242.434,75 242.541,75C242.649,75 242.05,74.297 241.211,73.438C240.372,72.578 239.597,71.875 239.49,71.875C239.382,71.875 239.981,72.578 240.82,73.438M234.277,92.861C234.976,92.947 236.118,92.947 236.816,92.861C237.515,92.774 236.943,92.703 235.547,92.703C234.15,92.703 233.579,92.774 234.277,92.861M174.734,135.547C174.734,136.943 174.805,137.515 174.892,136.816C174.979,136.118 174.979,134.976 174.892,134.277C174.805,133.579 174.734,134.15 174.734,135.547M147.173,167.073C147.658,167.167 148.362,167.163 148.735,167.065C149.108,166.967 148.711,166.891 147.852,166.895C146.992,166.9 146.687,166.98 147.173,167.073M316.119,234.655C316.712,234.745 317.591,234.743 318.072,234.65C318.552,234.557 318.066,234.484 316.992,234.487C315.918,234.49 315.525,234.566 316.119,234.655M183.715,274.023C183.717,275.313 183.79,275.793 183.877,275.091C183.964,274.389 183.962,273.334 183.873,272.747C183.784,272.16 183.713,272.734 183.715,274.023M158.301,361.597C158.677,361.696 159.292,361.696 159.668,361.597C160.044,361.499 159.736,361.419 158.984,361.419C158.232,361.419 157.925,361.499 158.301,361.597M164.746,361.604C165.229,361.697 166.021,361.697 166.504,361.604C166.987,361.511 166.592,361.435 165.625,361.435C164.658,361.435 164.263,361.511 164.746,361.604" style="fill:rgb(124,116,120);"/>
        </g>
    </g>
</svg>
