<?xml version="1.0" encoding="UTF-8" standalone="no"?><!DOCTYPE svg PUBLIC "-//W3C//DTD SVG 1.1//EN" "http://www.w3.org/Graphics/SVG/1.1/DTD/svg11.dtd"><svg width="100%" height="100%" viewBox="0 0 3071 1034" preserveAspectRatio="xMidYMid meet" version="1.1" xmlns="http://www.w3.org/2000/svg" xmlns:xlink="http://www.w3.org/1999/xlink" xml:space="preserve" xmlns:serif="http://www.serif.com/" style="fill:#5C5C5C;fill-rule:evenodd;clip-rule:evenodd;stroke-linejoin:round;stroke-miterlimit:2;"><g><path d="M1227.5,185.833c-55.833,13.334 -112.5,60 -135.833,112.084c-40.417,89.166 -42.084,297.083 -3.334,401.666c25,67.5 80.417,113.75 150.834,125.834c38.333,6.666 102.083,2.5 132.5,-8.334c70.833,-24.583 127.916,-101.666 128.333,-172.5l0,-15.416l-108.333,-0l-11.667,25.833c-22.917,50 -45.833,67.083 -90.833,67.083c-46.667,0 -74.584,-24.583 -90.834,-80.416c-16.666,-56.667 -15.833,-224.167 1.25,-279.167c9.584,-30.833 30,-57.917 52.084,-68.333c17.5,-8.334 56.25,-8.75 74.583,-0.834c20,7.917 45.833,40 55,66.667l7.917,23.333l115,0l-0,-13.75c-0,-22.083 -14.584,-67.5 -29.584,-92.916c-27.5,-45.417 -79.166,-81.667 -132.083,-92.917c-29.583,-6.25 -85,-5.417 -115,2.083Z" style="fill-rule:nonzero;"/><path d="M1704.17,185c-50.834,14.167 -97.5,52.083 -118.334,95.417c-24.166,51.25 -24.166,129.583 0.417,174.583c23.75,43.333 57.5,64.583 157.917,99.167c91.666,31.666 111.25,45.416 116.666,81.25c7.5,50.416 -32.916,85.416 -97.916,85.416c-50,-0.416 -82.917,-25 -92.084,-68.333c-2.5,-12.917 -7.083,-23.333 -9.583,-23.333c-2.917,-0 -27.917,2.916 -55.833,6.666c-57.917,7.917 -55.834,5.417 -46.667,48.334c10.417,48.333 34.167,84.583 72.083,109.583c35,23.333 64.584,31.667 121.25,34.167c84.584,3.75 142.084,-16.25 185.834,-65.417c59.166,-65.833 58.75,-191.667 -1.25,-250.833c-25,-25 -50,-37.084 -132.084,-65.417c-76.666,-26.25 -93.333,-34.167 -105.416,-50.833c-16.667,-22.5 -17.5,-60.834 -1.667,-85c14.167,-21.667 53.75,-33.334 87.917,-26.25c27.5,5.833 54.166,31.25 58.333,55.416c1.667,9.167 3.333,18.75 4.167,21.25c0.833,2.917 16.25,2.5 50.416,-1.25c27.5,-3.333 51.667,-6.666 54.167,-7.5c3.333,-0.833 3.333,-9.166 0.833,-27.5c-9.583,-69.583 -58.333,-122.5 -128.75,-139.166c-31.666,-7.5 -94.166,-7.5 -120.416,-0.417Z" style="fill-rule:nonzero;"/><path d="M70.833,187.5l0,633.333l116.667,0l0,-241.666l81.25,-0l32.917,76.25c18.333,41.666 42.5,95.833 53.75,120.833l20.833,44.583l61.667,0c34.583,0 62.083,-1.666 62.083,-3.75c0,-3.75 -73.75,-160.416 -102.917,-219.166l-17.083,-33.334l16.25,-7.5c42.083,-20 77.917,-69.166 89.167,-122.5c25.833,-121.666 -29.584,-217.916 -138.334,-240.833c-20.833,-4.583 -60.833,-6.25 -152.083,-6.25l-124.167,0Zm254.167,120.417c30.417,16.25 42.917,37.916 43.333,75.833c0,37.917 -14.583,63.333 -47.083,79.583c-21.25,10.834 -25.833,11.667 -78.333,11.667l-55.417,0l0,-177.083l63.333,2.083c41.667,1.667 67.5,4.167 74.167,7.917Z" style="fill-rule:nonzero;"/><path d="M723.333,194.583c-10.416,35.417 -50.416,176.667 -73.333,259.584c-15.417,56.25 -44.583,159.583 -64.167,229.583c-19.583,70 -35.833,129.583 -35.833,132.5c0,3.333 15.833,4.583 59.583,3.75l59.167,-1.25l13.75,-47.917c7.5,-26.25 15.417,-55 17.917,-63.75l4.166,-15.416l91.25,-0c54.167,-0 92.084,1.666 93.75,4.166c2.084,3.334 17.917,58.75 30.834,107.084l5,17.916l62.083,0c34.583,0 62.5,-0.416 62.5,-1.25c0,-0.833 -27.083,-96.25 -60.417,-211.666c-33.333,-115.417 -74.166,-257.5 -90.833,-315l-30,-105.417l-71.667,0c-64.583,0 -71.666,0.833 -73.75,7.083Zm113.75,293.334c13.75,53.75 25.417,99.166 25.417,100.833c0,1.667 -30.417,2.917 -67.083,2.917c-62.084,-0 -67.084,-0.417 -65.417,-7.5c1.25,-3.75 17.083,-61.25 35,-127.084l32.917,-120l6.666,26.25c3.75,14.584 18.334,70.417 32.5,124.584Z" style="fill-rule:nonzero;"/><path d="M2218.74,383.76l-0.179,268.45c-0.015,21.888 -17.797,39.646 -39.684,39.631c-21.888,-0.015 -39.646,-17.796 -39.631,-39.684l0.179,-268.45c0.015,-21.888 17.797,-39.646 39.684,-39.631c21.888,0.014 39.646,17.796 39.631,39.684Z"/><path d="M2352.22,222.689l-0.392,585.711c-0.015,21.887 -17.797,39.645 -39.684,39.63c-21.888,-0.014 -39.646,-17.796 -39.631,-39.684l0.392,-585.71c0.014,-21.887 17.796,-39.645 39.684,-39.631c21.887,0.015 39.645,17.797 39.631,39.684Z"/><path d="M2484.82,89.791l-0.291,852.586c-0.007,21.887 -17.783,39.651 -39.671,39.644c-21.887,-0.008 -39.651,-17.784 -39.644,-39.671l0.291,-852.586c0.007,-21.888 17.783,-39.652 39.671,-39.644c21.887,0.007 39.651,17.783 39.644,39.671Z"/><path d="M2620.6,259.916l-0.033,517.072c-0.001,21.887 -17.772,39.656 -39.66,39.655c-21.887,-0.002 -39.656,-17.773 -39.655,-39.66l0.033,-517.073c0.002,-21.887 17.773,-39.656 39.66,-39.654c21.888,0.001 39.657,17.772 39.655,39.66Z"/><path d="M2751.89,362.141l-0.267,314.209c-0.019,21.888 -17.804,39.642 -39.692,39.624c-21.887,-0.019 -39.642,-17.804 -39.623,-39.691l0.267,-314.209c0.019,-21.888 17.804,-39.643 39.692,-39.624c21.887,0.018 39.642,17.804 39.623,39.691Z"/><path d="M2885.05,429.436l-0.147,174.737c-0.018,21.82 -17.748,39.52 -39.568,39.502c-21.82,-0.018 -39.521,-17.748 -39.503,-39.568l0.147,-174.737c0.018,-21.82 17.748,-39.521 39.568,-39.502c21.82,0.018 39.521,17.748 39.503,39.568Z"/><path d="M3015.46,507.472l0.021,32.215c0.014,21.82 -17.69,39.546 -39.51,39.56c-21.82,0.014 -39.547,-17.69 -39.561,-39.51l-0.02,-32.214c-0.014,-21.82 17.69,-39.547 39.51,-39.561c21.82,-0.014 39.547,17.69 39.56,39.51Z"/></g></svg>