<?xml version="1.0" encoding="UTF-8"?>
<svg version="1.1" xmlns="http://www.w3.org/2000/svg" width="1024" height="1024">
<path d="M0 0 C337.92 0 675.84 0 1024 0 C1024 337.92 1024 675.84 1024 1024 C686.08 1024 348.16 1024 0 1024 C0 686.08 0 348.16 0 0 Z " fill="#FCFBFA" transform="translate(0,0)"/>
<path d="M0 0 C75.7671355 0 75.7671355 0 89.3125 12.625 C97.86325114 21.63214916 101.3988273 32.9339568 101.3125 45.1875 C101.30686035 46.02539062 101.3012207 46.86328125 101.29541016 47.7265625 C101.04688222 60.50237496 97.59295162 72.39517899 88.625 81.875 C79.83433735 90 79.83433735 90 75 90 C75.24943359 90.51868652 75.49886719 91.03737305 75.75585938 91.57177734 C78.86877559 98.05049929 81.96651482 104.53639791 85.05847168 111.02514648 C86.0631385 113.13243286 87.06916963 115.23906517 88.07519531 117.34570312 C89.90197367 121.17301102 91.72201615 125.00347019 93.53833008 128.83575439 C94.26113474 130.35845909 94.98589914 131.88023511 95.71264648 133.40106201 C96.7434244 135.55917217 97.76701823 137.72055535 98.7890625 139.8828125 C99.09901154 140.52780701 99.40896057 141.17280151 99.728302 141.83734131 C101.36921595 145.32991284 102.22896672 148.1448336 103 152 C93.1 152 83.2 152 73 152 C67.24538843 140.14201252 61.69085397 128.21995729 56.38555908 116.15551758 C55.75519879 114.72232346 55.12316749 113.2898631 54.48944092 111.8581543 C53.59037804 109.82444302 52.69841367 107.78776958 51.80859375 105.75 C51.29095459 104.56921875 50.77331543 103.3884375 50.23999023 102.171875 C49 99 49 99 48 94 C41.4 94 34.8 94 28 94 C28 113.14 28 132.28 28 152 C18.76 152 9.52 152 0 152 C0 101.84 0 51.68 0 0 Z " fill="#181919" transform="translate(171,433)"/>
<path d="M0 0 C11.55 0 23.1 0 35 0 C35.97839844 3.39410156 36.95679688 6.78820312 37.96484375 10.28515625 C39.28892656 14.87764337 40.61320845 19.47007307 41.9375 24.0625 C42.28346222 25.26233521 42.62942444 26.46217041 42.98587036 27.69836426 C48.20728114 45.80637069 48.20728114 45.80637069 53.46264648 63.90454102 C57.77214795 78.69369669 62.03208916 93.49721393 66.27859497 108.30456543 C67.00178003 110.8245112 67.72609995 113.3441316 68.45162964 115.86340332 C69.47884855 119.43144018 70.50163313 123.0007218 71.5234375 126.5703125 C71.82934311 127.6296701 72.13524872 128.68902771 72.45042419 129.78048706 C74.55609926 137.16048284 76.26872343 144.49780155 78 152 C68.1 152 58.2 152 48 152 C46.865625 148.184375 45.73125 144.36875 44.5625 140.4375 C44.20615479 139.24825928 43.84980957 138.05901855 43.48266602 136.83374023 C43.20092529 135.87669189 42.91918457 134.91964355 42.62890625 133.93359375 C42.34088135 132.96478271 42.05285645 131.99597168 41.75610352 130.99780273 C40.92860417 127.7169295 40.47851613 124.34961291 40 121 C25.15 121 10.3 121 -5 121 C-6.32 126.28 -7.64 131.56 -9 137 C-10.30833113 142.00719322 -11.65453922 147.00257424 -13 152 C-22.57 152 -32.14 152 -42 152 C-41.34110152 146.72881214 -40.72050915 142.45708425 -39.30444336 137.47875977 C-38.95517792 136.23984985 -38.60591248 135.00093994 -38.24606323 133.7244873 C-37.86074783 132.38010084 -37.47533843 131.03574132 -37.08984375 129.69140625 C-36.68584295 128.26605935 -36.28238336 126.84055896 -35.87942505 125.41491699 C-34.79653788 121.58892585 -33.70670057 117.76494707 -32.61555862 113.94130325 C-31.4790537 109.95415301 -30.34891093 105.96520145 -29.21850586 101.97631836 C-27.83584609 97.09831214 -26.45280915 92.22041594 -25.0670929 87.34327698 C-22.11872448 76.9642154 -19.19269149 66.57916315 -16.2890625 56.1875 C-15.92248473 54.87637428 -15.5558925 53.56525261 -15.18928528 52.25413513 C-13.81626738 47.3422904 -12.44363803 42.43034151 -11.07467651 37.5173645 C-10.14701399 34.189349 -9.21635053 30.86218499 -8.28515625 27.53515625 C-8.02445343 26.59627563 -7.76375061 25.65739502 -7.49514771 24.69006348 C-5.16910059 16.39483784 -2.57388009 8.2364163 0 0 Z " fill="#191919" transform="translate(328,433)"/>
<path d="M0 0 C8.67606754 6.34756412 15.08792945 14.63295367 17.1875 25.3125 C17.25374507 27.06136981 17.27302595 28.81252748 17.25 30.5625 C17.24097656 31.45453125 17.23195313 32.3465625 17.22265625 33.265625 C17.21105469 33.94109375 17.19945312 34.6165625 17.1875 35.3125 C-0.66899203 37.60862756 -0.66899203 37.60862756 -8.8125 37.3125 C-8.88726563 36.74402344 -8.96203125 36.17554688 -9.0390625 35.58984375 C-10.06781201 29.5484618 -11.98675179 25.24499459 -16.8125 21.3125 C-22.77006322 18.26206385 -29.29714312 18.58530684 -35.8125 19.3125 C-39.72532069 20.77616318 -42.66087141 22.58124378 -44.9921875 26.0859375 C-47.14889811 31.9398663 -46.6836916 39.09492138 -44.4375 44.8125 C-36.33331927 52.53076736 -23.96872003 55.11121963 -13.59960938 58.47460938 C-0.72273925 62.76689942 12.02679218 67.97569248 19.125 80.1640625 C25.62543639 93.30832727 25.52562501 106.95668418 21.44921875 120.859375 C19.69640217 125.65655723 17.46409124 129.41708524 14.1875 133.3125 C13.68605469 133.93511719 13.18460938 134.55773437 12.66796875 135.19921875 C4.76215126 144.06681452 -7.7184627 148.66927597 -19.35986328 149.49267578 C-36.20350039 150.30305253 -51.1372037 149.2656994 -64.8125 138.3125 C-72.85520926 130.89367713 -77.43064037 122.18555341 -78.8125 111.3125 C-78.84148327 108.97934668 -78.84639473 106.64558714 -78.8125 104.3125 C-75.626327 103.80379467 -72.43838525 103.30713419 -69.25 102.8125 C-68.35474609 102.66941406 -67.45949219 102.52632812 -66.53710938 102.37890625 C-61.56246352 101.61357612 -56.84510643 101.14681748 -51.8125 101.3125 C-51.60496094 102.18132812 -51.39742187 103.05015625 -51.18359375 103.9453125 C-49.46134552 110.38752974 -48.13753078 115.18028436 -42.69140625 119.26171875 C-37.81233285 121.99034816 -33.5564282 122.69854141 -28 122.6875 C-26.93422729 122.68834595 -26.93422729 122.68834595 -25.84692383 122.68920898 C-20.0714129 122.56796102 -16.60023156 121.41044395 -11.8125 118.3125 C-10.8225 117.9825 -9.8325 117.6525 -8.8125 117.3125 C-7.64296584 114.88866923 -7.64296584 114.88866923 -6.8125 112.3125 C-6.4825 111.6525 -6.1525 110.9925 -5.8125 110.3125 C-5.22800239 104.69233071 -5.38260446 99.98963028 -8.8125 95.3125 C-15.28629843 89.94418495 -22.45574978 87.43898665 -30.375 84.9375 C-63.77591416 73.85085915 -63.77591416 73.85085915 -72.625 57.8359375 C-78.10365808 46.19378909 -76.82735981 32.21803666 -72.8125 20.3125 C-68.89860811 9.629655 -60.85350002 2.26924763 -50.8125 -2.6875 C-34.92033716 -9.65056104 -14.93500156 -9.07219215 0 0 Z " fill="#191919" transform="translate(605.8125,437.6875)"/>
<path d="M0 0 C0.79857422 -0.00773437 1.59714844 -0.01546875 2.41992188 -0.0234375 C16.51118479 0.02249979 28.22936083 5.46235976 38.34375 15.05859375 C47.53736966 24.75624957 51.4375 36.11234681 51.4375 49.25 C42.1975 49.25 32.9575 49.25 23.4375 49.25 C21.7875 45.29 20.1375 41.33 18.4375 37.25 C13.55578236 30.68533162 13.55578236 30.68533162 6.4375 27.25 C0.84762446 26.6414819 -5.35159474 26.14700316 -10.5 28.75 C-19.10665211 35.77583846 -22.43825133 44.39154396 -23.5625 55.25 C-23.72164631 58.59499914 -23.7498881 61.93672117 -23.765625 65.28515625 C-23.77417511 66.71872719 -23.77417511 66.71872719 -23.78289795 68.18125916 C-23.79231062 70.19919746 -23.79886701 72.21715087 -23.80273438 74.23510742 C-23.81239295 77.2787661 -23.84343304 80.32173512 -23.875 83.36523438 C-24.11701484 106.18309591 -24.11701484 106.18309591 -13.98828125 125.97265625 C-7.82215429 130.77447746 0.03284637 130.10946872 7.4375 129.25 C13.12165833 127.79055394 16.01461639 123.57511297 19.078125 118.859375 C20.84460101 115.46855323 22.09502739 111.82992697 23.4375 108.25 C32.3475 108.25 41.2575 108.25 50.4375 108.25 C50.4375 123.29784112 46.27565527 133.17687432 36 144.0625 C24.12624523 155.30157745 10.10443265 156.66914542 -5.5625 156.4609375 C-19.53073866 156.03749913 -30.91163191 150.27687594 -40.5625 140.25 C-45.21477439 135.03585672 -47.5678548 129.08131804 -49.8125 122.5625 C-50.05887207 121.85697998 -50.30524414 121.15145996 -50.55908203 120.42456055 C-54.81774098 107.24685119 -54.88311664 93.80771535 -54.82324219 80.10913086 C-54.81250581 77.18907982 -54.82320231 74.26964203 -54.8359375 71.34960938 C-54.85243059 50.37096121 -52.87791624 30.18944489 -38.0625 14.0625 C-27.50015264 3.94622462 -14.40632915 -0.14020758 0 0 Z " fill="#191919" transform="translate(463.5625,430.75)"/>
<path d="M0 0 C3.00616776 0.76105513 4.38922499 2.03805571 6.16015625 4.546875 C7.22695513 7.74727165 7.27616415 9.99648777 7.26179504 13.35957336 C7.25786129 15.18297257 7.25786129 15.18297257 7.25384808 17.04320812 C7.24588135 18.39640023 7.2378415 19.74959191 7.22973633 21.1027832 C7.22485929 22.53363807 7.22046369 23.96449464 7.21651173 25.39535236 C7.20720647 28.48892736 7.19499285 31.58247303 7.18075943 34.67602921 C7.15894963 39.55389765 7.14749483 44.43175586 7.13803101 49.30966187 C7.09542437 70.18391328 7.01498528 91.05803119 6.92444134 111.93212414 C6.87918879 122.43821957 6.83975717 132.9442773 6.8137207 143.45043945 C6.79077133 152.70735159 6.75745454 161.96415688 6.71145469 171.22098428 C6.68757393 176.09608646 6.66880877 180.9710836 6.66254234 185.8462429 C6.65651226 190.40457599 6.63658868 194.96263477 6.60588074 199.52086639 C6.59708288 201.1909959 6.59338154 202.8611612 6.59514809 204.53131294 C6.59679768 206.80966092 6.58013256 209.08716937 6.55888367 211.36540222 C6.5542747 212.63923862 6.54966574 213.91307501 6.54491711 215.2255125 C6.12761117 218.82781314 5.34745562 220.68390886 3.16015625 223.546875 C-0.57722935 226.0384654 -2.41315958 226.00480785 -6.83984375 225.546875 C-10.35424268 223.36013789 -12.41296195 221.41437905 -13.83984375 217.546875 C-14.03423199 214.70959766 -14.11823441 211.97088014 -14.10726929 209.13381958 C-14.1118004 208.27708928 -14.11633151 207.42035898 -14.12099993 206.53766716 C-14.1336777 203.66193839 -14.13202139 200.78639818 -14.13037109 197.91064453 C-14.13635422 195.85084794 -14.14315926 193.79105359 -14.15072632 191.73126221 C-14.1684151 186.13208926 -14.1730829 180.53297742 -14.17435789 174.93377924 C-14.17625568 170.26172039 -14.1836118 165.58967581 -14.19070208 160.91762245 C-14.20699444 149.8960834 -14.21187024 138.87457704 -14.21044922 127.85302734 C-14.20924743 116.47860652 -14.23035489 105.10437534 -14.26193655 93.73000252 C-14.28807538 83.96854099 -14.29881752 74.20714149 -14.2975384 64.44564521 C-14.29702808 58.61374174 -14.30275002 52.78200676 -14.3238945 46.95013809 C-14.34323659 41.46553616 -14.34342884 35.98126416 -14.32886124 30.4966507 C-14.32676707 28.48346603 -14.33151009 26.47026092 -14.34358215 24.45711136 C-14.35899448 21.70898402 -14.34975313 18.96200002 -14.33432007 16.21389771 C-14.34460719 15.41700409 -14.35489432 14.62011048 -14.36549318 13.79906857 C-14.30110097 8.61138971 -13.27214043 5.65830487 -9.83984375 1.546875 C-6.06934044 -0.96679387 -4.32832785 -0.59118624 0 0 Z " fill="#1B1B1B" transform="translate(743.83984375,399.453125)"/>
<path d="M0 0 C2.82943284 1.01130119 4.10334847 2.39039341 6 4.71484375 C6.50336456 7.52005672 6.50336456 7.52005672 6.50793457 10.8188324 C6.52485352 12.69680511 6.52485352 12.69680511 6.54211426 14.61271667 C6.53433723 15.99759143 6.52614456 17.38246389 6.51757812 18.76733398 C6.5229991 20.22778013 6.53012163 21.68822081 6.53881836 23.14865112 C6.55705947 27.11363584 6.54998073 31.07820441 6.53730202 35.04319644 C6.52717641 39.19287664 6.53656665 43.34252116 6.54284668 47.49220276 C6.5501252 54.46207069 6.54053094 61.43176913 6.52148438 68.40161133 C6.49972368 76.45763763 6.50676018 84.51325887 6.52879 92.56927532 C6.54694843 99.48660956 6.54949992 106.40382192 6.53903532 113.3211723 C6.53280169 117.45226972 6.53196088 121.58317684 6.54518127 125.71426201 C6.55674541 129.59925518 6.5487043 133.48372689 6.52560425 137.36866379 C6.52031972 138.79367139 6.52182665 140.21872295 6.53065491 141.643713 C6.54160237 143.59041643 6.52543288 145.53721588 6.50793457 147.48387146 C6.50642647 148.57284446 6.50491837 149.66181746 6.50336456 150.78378963 C5.87998067 154.41370732 4.53609364 156.09350201 2 158.71484375 C-1.79819094 160.28546744 -5.12381362 160.07674682 -8.875 158.52734375 C-11.89438798 155.95198341 -12.88632636 153.94002075 -13.25447559 149.97210026 C-13.25652846 148.91300166 -13.25858133 147.85390306 -13.26069641 146.76271057 C-13.26778122 145.54438538 -13.27486603 144.32606018 -13.28216553 143.07081604 C-13.27987179 141.72372399 -13.2773621 140.3766323 -13.2746582 139.02954102 C-13.2790062 137.60850761 -13.28418964 136.18747655 -13.29014587 134.76644897 C-13.30353765 130.90900871 -13.30411436 127.05166641 -13.30158257 123.19420743 C-13.300513 119.97348458 -13.30539588 116.75278155 -13.310188 113.53206295 C-13.32128376 105.93371373 -13.32172018 98.33541395 -13.31567383 90.73706055 C-13.30963281 82.89922882 -13.32194808 75.06157655 -13.3432439 67.22377545 C-13.3608584 60.49329978 -13.36686151 53.76288125 -13.36360615 47.03238338 C-13.36179293 43.01308656 -13.36443333 38.99391775 -13.37832069 34.9746418 C-13.39089205 31.1948058 -13.38896169 27.41524962 -13.37590981 23.63541794 C-13.37354296 22.24910195 -13.37628265 20.86276631 -13.38453293 19.47647285 C-13.39499179 17.58232785 -13.38510184 15.6881032 -13.3742218 13.79396057 C-13.37438954 12.73448495 -13.37455729 11.67500933 -13.37473011 10.58342838 C-12.83751835 6.4710356 -11.04652627 3.87765072 -8.3125 0.83984375 C-5.3137457 -0.61900969 -3.25499622 -0.36237263 0 0 Z " fill="#181818" transform="translate(712,432.28515625)"/>
<path d="M0 0 C3.41866111 0.2520374 4.09333928 0.7629658 6.9375 3.0625 C9.75169477 6.64420243 10.12619234 8.27152159 10.14044189 12.74700928 C10.14900711 14.35364441 10.14900711 14.35364441 10.15774536 15.99273682 C10.15886322 17.17301453 10.15998108 18.35329224 10.16113281 19.56933594 C10.16609772 20.80844727 10.17106262 22.04755859 10.17617798 23.32421875 C10.1883011 26.72936902 10.19574886 30.13445775 10.20018864 33.53962231 C10.20311882 35.66739098 10.20722359 37.79515426 10.21169281 39.92292023 C10.2253717 46.58110713 10.23503568 53.2392817 10.2388947 59.89748168 C10.2433726 67.581308 10.26090623 75.26495617 10.2898953 82.94872832 C10.31152586 88.88851973 10.32159976 94.82826107 10.32293582 100.76809144 C10.32398313 104.31518793 10.3298747 107.86211706 10.34775543 111.40917206 C10.36732708 115.36886818 10.36294163 119.32834262 10.35644531 123.28808594 C10.3656601 124.46026672 10.37487488 125.63244751 10.3843689 126.84014893 C10.35523843 132.50167976 10.3267705 136.85527874 7 141.6875 C4.67273175 143.45301385 3.02147649 143.68423184 0.125 144.125 C-3.20134937 143.65931109 -5.19784376 142.78518579 -7.72342873 140.55673027 C-10.57364596 136.38327561 -9.81574291 130.95884014 -9.76049805 126.09790039 C-9.76940567 124.8193367 -9.77831329 123.54077301 -9.78749084 122.22346497 C-9.81054024 118.72309386 -9.79587246 115.2238153 -9.77302146 111.72347951 C-9.75407926 108.05607036 -9.7652681 104.38873333 -9.77192688 100.72129822 C-9.7782647 94.56182545 -9.76001416 88.40278934 -9.72729492 82.2434082 C-9.6898175 75.12963163 -9.69157227 68.01668284 -9.7143361 60.90286261 C-9.73531174 54.05183655 -9.72799509 47.20111544 -9.70801735 40.35009575 C-9.70004569 37.43828013 -9.70200543 34.52672347 -9.71204185 31.61491585 C-9.72458705 27.54497151 -9.69579893 23.47632424 -9.6628418 19.40649414 C-9.67139191 18.20162354 -9.67994202 16.99675293 -9.68875122 15.75537109 C-9.56149278 6.65414553 -9.56149278 6.65414553 -6.58747864 2.94017029 C-3.07501841 -0.11779304 -3.07501841 -0.11779304 0 0 Z " fill="#181818" transform="translate(773,440.3125)"/>
<path d="M0 0 C3.62072915 0.89811055 5.44311997 2.81448787 8 5.49609375 C9.17885982 9.03267322 9.15534409 12.23710504 9.16113281 15.91748047 C9.16609772 16.67066559 9.17106262 17.42385071 9.17617798 18.19985962 C9.19078452 20.69184279 9.19759886 23.18376231 9.203125 25.67578125 C9.20887743 27.4082947 9.21463515 29.14080812 9.22039795 30.87332153 C9.23090346 34.50653378 9.23674916 38.13972392 9.24023438 41.77294922 C9.24572001 46.42578154 9.26975131 51.07832136 9.29820633 55.73106194 C9.31683988 59.3101588 9.32203868 62.88918529 9.32357025 66.46832657 C9.32659539 68.18351975 9.33461924 69.89871173 9.34775543 71.61385727 C9.36483215 74.01476999 9.36293203 76.41496896 9.35644531 78.81591797 C9.3656601 79.52258606 9.37487488 80.22925415 9.3843689 80.95733643 C9.34756172 85.31169891 8.68076698 88.04297149 6 91.49609375 C2.2626144 93.98768415 0.42668417 93.9540266 -4 93.49609375 C-7.22618733 91.41699525 -8.8669302 89.69569846 -11 86.49609375 C-11.20953825 83.8957762 -11.30405576 81.40097909 -11.30639648 78.79931641 C-11.31472 78.01687057 -11.32304352 77.23442474 -11.33161926 76.42826843 C-11.35573609 73.83884725 -11.36449335 71.24967787 -11.37109375 68.66015625 C-11.38005881 66.8603813 -11.38918063 65.06060713 -11.39845276 63.26083374 C-11.41494987 59.48637073 -11.42264418 55.71199649 -11.42553711 51.9375 C-11.43092171 47.10283624 -11.46860148 42.26900771 -11.51428127 37.43457985 C-11.54403604 33.71649129 -11.55126032 29.99860423 -11.55226326 26.28040695 C-11.55646872 24.49820505 -11.56891615 22.71600272 -11.58978081 20.933918 C-11.6166635 18.4392089 -11.61188029 15.94644054 -11.59936523 13.45166016 C-11.61419952 12.71693985 -11.62903381 11.98221954 -11.64431763 11.22523499 C-11.58914361 7.35949714 -11.10287119 5.62890073 -8.70863342 2.53793335 C-5.73352939 0.29522115 -3.73259302 -0.23328706 0 0 Z " fill="#191919" transform="translate(806,465.50390625)"/>
<path d="M0 0 C4.455 -0.061875 8.91 -0.12375 13.5 -0.1875 C14.88896484 -0.21481201 16.27792969 -0.24212402 17.70898438 -0.27026367 C32.04872658 -0.36645496 32.04872658 -0.36645496 38.05859375 4.75390625 C38.74115234 5.64916016 38.74115234 5.64916016 39.4375 6.5625 C39.91058594 7.16191406 40.38367188 7.76132812 40.87109375 8.37890625 C44.56308352 13.68055246 43.86261492 21.76948244 43 28 C41.0685431 33.15285109 38.04739359 36.63399616 33.375 39.5 C28.63530064 41.60653305 25.11439467 42.12310978 19.921875 42.09765625 C18.87612305 42.09515869 17.83037109 42.09266113 16.75292969 42.09008789 C14.77147949 42.07643188 14.77147949 42.07643188 12.75 42.0625 C8.5425 42.041875 4.335 42.02125 0 42 C0 28.14 0 14.28 0 0 Z " fill="#FBFAFA" transform="translate(199,460)"/>
<path d="M0 0 C3.49406769 1.66762322 4.82670681 2.74006022 7 6 C7.26069641 8.9778595 7.26069641 8.9778595 7.2746582 12.67114258 C7.2823246 13.68146797 7.2823246 13.68146797 7.29014587 14.71220398 C7.30404954 16.93973674 7.3030841 19.16696023 7.30078125 21.39453125 C7.30466874 22.94528824 7.30900352 24.49604416 7.31376648 26.04679871 C7.32123106 29.29921924 7.32093644 32.55153124 7.31567383 35.80395508 C7.30988922 39.96349298 7.32678426 44.12258414 7.3500185 48.28204823 C7.36478422 51.48632895 7.36562352 54.69050291 7.36250877 57.89481163 C7.3630209 59.42775034 7.36823832 60.9606952 7.37832069 62.49360085 C7.39071861 64.64291579 7.38387353 66.79137165 7.37231445 68.94067383 C7.37294388 70.16184402 7.3735733 71.38301422 7.3742218 72.64118958 C6.89428446 76.94884492 5.68006452 80.56883393 2.3125 83.4375 C-1.24125257 84.3019263 -4.63321156 84.40439592 -8 83 C-12.29331555 78.66394904 -13.62636412 76.26788429 -13.64697266 69.98828125 C-13.66011505 68.97729874 -13.66011505 68.97729874 -13.67352295 67.94589233 C-13.69539952 65.73409245 -13.68100937 63.52431758 -13.6640625 61.3125 C-13.66743409 59.76602803 -13.67228957 58.21955865 -13.67855835 56.6730957 C-13.68591365 53.43838165 -13.67526864 50.20435987 -13.65185547 46.96972656 C-13.62336717 42.83342891 -13.63977855 38.69875345 -13.66971779 34.56251526 C-13.68782791 31.37101119 -13.68201603 28.17988867 -13.66907883 24.9883728 C-13.66575501 23.46381435 -13.66979579 21.9392207 -13.68147659 20.41470337 C-13.6942484 18.27944859 -13.67472768 16.1467818 -13.64697266 14.01171875 C-13.64299469 12.79959717 -13.63901672 11.58747559 -13.63491821 10.33862305 C-12.78666106 5.87818891 -11.16474423 4.21336016 -8 1 C-5.17998673 -0.41000664 -3.12992745 -0.24548451 0 0 Z " fill="#171717" transform="translate(680,471)"/>
<path d="M0 0 C0.75925781 -0.06058594 1.51851562 -0.12117188 2.30078125 -0.18359375 C5.28259868 0.59236201 6.71763158 2.05547394 8.61387634 4.43684387 C10.80291393 8.51603068 10.3962299 13.04208773 10.3515625 17.56640625 C10.35634613 18.6336644 10.36112976 19.70092255 10.36605835 20.80052185 C10.36945237 23.05054198 10.36028501 25.30061176 10.33935547 27.55053711 C10.31255846 30.99249158 10.33913596 34.43119274 10.37109375 37.87304688 C10.36779008 40.06250719 10.36138475 42.25196548 10.3515625 44.44140625 C10.36168365 45.46859268 10.37180481 46.49577911 10.38223267 47.55409241 C10.26534001 54.68353632 10.26534001 54.68353632 7.27490234 58.58544922 C4.02491893 60.9117725 2.47225259 61.11133617 -1.37890625 60.87109375 C-4.41868646 60.18944607 -6.17946044 58.63517713 -8.3125 56.4375 C-9.50638319 54.04973363 -9.45178881 52.54907717 -9.47363281 49.88354492 C-9.48324036 48.93883835 -9.4928479 47.99413177 -9.50274658 47.02079773 C-9.50699646 45.99686417 -9.51124634 44.9729306 -9.515625 43.91796875 C-9.52132507 42.86724686 -9.52702515 41.81652496 -9.53289795 40.73396301 C-9.54235652 38.50714121 -9.54888532 36.28030536 -9.55273438 34.0534668 C-9.56243071 30.64932748 -9.5934427 27.24579416 -9.625 23.84179688 C-9.63153086 21.67969109 -9.63678101 19.51758098 -9.640625 17.35546875 C-9.6529718 16.33760788 -9.6653186 15.31974701 -9.67803955 14.27104187 C-9.64997519 5.34831809 -9.64997519 5.34831809 -6.3125 1.4375 C-4.05265891 0.30757945 -2.51523513 0.13950044 0 0 Z " fill="#171717" transform="translate(836.3125,481.5625)"/>
<path d="M0 0 C1.93398357 2.90097535 2.63340648 4.8223302 3.51220703 8.14233398 C3.93241623 9.71427773 3.93241623 9.71427773 4.3611145 11.31797791 C4.65702484 12.44925613 4.95293518 13.58053436 5.2578125 14.74609375 C5.56572723 15.90875259 5.87364197 17.07141144 6.19088745 18.26930237 C6.84078483 20.72902108 7.48785662 23.18948783 8.13232422 25.65063477 C9.12065455 29.42092294 10.12021082 33.18810529 11.12109375 36.95507812 C11.75067606 39.3435719 12.37960429 41.7322382 13.0078125 44.12109375 C13.3077713 45.25034775 13.6077301 46.37960175 13.91677856 47.54307556 C14.19061371 48.59419022 14.46444885 49.64530487 14.74658203 50.72827148 C14.98925812 51.65187973 15.2319342 52.57548798 15.48196411 53.52708435 C16 56 16 56 16 60 C5.44 60 -5.12 60 -16 60 C-14.67670064 52.72185351 -13.26015138 45.80168833 -11.25 38.73046875 C-10.9912207 37.80583328 -10.73244141 36.88119781 -10.46582031 35.92854309 C-9.92355716 33.994431 -9.37893819 32.06097794 -8.83203125 30.12817383 C-7.99749803 27.17865719 -7.17000253 24.22723652 -6.34375 21.27539062 C-5.81290422 19.38530309 -5.28166793 17.49532518 -4.75 15.60546875 C-4.50411133 14.73037155 -4.25822266 13.85527435 -4.00488281 12.95365906 C-2.77095698 8.59697011 -1.47775682 4.28209665 0 0 Z " fill="#F8F7F7" transform="translate(345,470)"/>
<path d="M0 0 C2.3181362 1.89111111 3.66914015 3.33828031 5 6 C5.17471848 8.09948601 5.26717852 10.20624408 5.3125 12.3125 C5.34988281 13.44300781 5.38726563 14.57351563 5.42578125 15.73828125 C4.91605818 19.64304057 3.72790817 21.22148129 1 24 C-1.85324437 25.42662219 -3.83454549 25.31033868 -7 25 C-9.69990662 23.20006226 -11.5418865 21.916227 -13 19 C-13.17522676 16.73354234 -13.26728256 14.46027146 -13.3125 12.1875 C-13.34988281 10.96417969 -13.38726563 9.74085938 -13.42578125 8.48046875 C-12.92980695 4.4262201 -11.84899719 2.85956861 -9 0 C-5.81452856 -1.59273572 -3.39809153 -0.76164121 0 0 Z " fill="#171717" transform="translate(872,501)"/>
<path d="M0 0 C9.57 0 19.14 0 29 0 C29.33 0.99 29.66 1.98 30 3 C20.1 3 10.2 3 0 3 C0 2.01 0 1.02 0 0 Z " fill="#212121" transform="translate(376,582)"/>
<path d="M0 0 C-2 2 -2 2 -4.5625 2.0625 C-5.7690625 2.0315625 -5.7690625 2.0315625 -7 2 C-7.33 2.33 -7.66 2.66 -8 3 C-9.66617115 3.04063832 -11.33388095 3.042721 -13 3 C-13 2.01 -13 1.02 -13 0 C-8.34462607 -0.83796731 -4.62921525 -1.0161692 0 0 Z " fill="#272626" transform="translate(545,541)"/>
<path d="M0 0 C1.38076179 3.83544942 0.85712183 7.07152497 0 11 C-1.5625 12.9375 -1.5625 12.9375 -3 14 C-2.48594831 9.03083364 -1.76615118 4.70973649 0 0 Z " fill="#131313" transform="translate(318,468)"/>
<path d="M0 0 C2.1519437 3.22791555 2.20086443 4.28400809 2 8 C0.02 8.99 0.02 8.99 -2 10 C-1.125 2.25 -1.125 2.25 0 0 Z " fill="#F0F0F0" transform="translate(345,470)"/>
<path d="M0 0 C2 3 2 3 1.625 6.1875 C1.41875 7.115625 1.2125 8.04375 1 9 C0.01 9 -0.98 9 -2 9 C-1.34 6.03 -0.68 3.06 0 0 Z " fill="#222222" transform="translate(294,552)"/>
<path d="M0 0 C2.72426311 2.35277269 3.8141763 4.62496331 5 8 C4.01 7.67 3.02 7.34 2 7 C1.3125 4.9375 1.3125 4.9375 1 3 C0.34 3 -0.32 3 -1 3 C-0.67 2.01 -0.34 1.02 0 0 Z " fill="#202020" transform="translate(253,541)"/>
<path d="M0 0 C1.65 0 3.3 0 5 0 C5.33 1.65 5.66 3.3 6 5 C4.02 4.34 2.04 3.68 0 3 C0 2.01 0 1.02 0 0 Z " fill="#2A292A" transform="translate(547,539)"/>
<path d="M0 0 C0.66 0.99 1.32 1.98 2 3 C1.125 6.6875 1.125 6.6875 0 10 C-0.66 9.67 -1.32 9.34 -2 9 C-1.34 6.03 -0.68 3.06 0 0 Z " fill="#262626" transform="translate(322,452)"/>
</svg>
